<?xml version="1.0" encoding="UTF-8" standalone="no"?>
<!-- Created with Inkscape (http://www.inkscape.org/) -->

<svg
   width="91.061333mm"
   height="74.186348mm"
   viewBox="0 0 91.061333 74.186348"
   version="1.1"
   id="svg1"
   inkscape:version="1.3 (0e150ed6c4, 2023-07-21)"
   sodipodi:docname="meshing-mesh_domain.svg"
   xmlns:inkscape="http://www.inkscape.org/namespaces/inkscape"
   xmlns:sodipodi="http://sodipodi.sourceforge.net/DTD/sodipodi-0.dtd"
   xmlns="http://www.w3.org/2000/svg"
   xmlns:svg="http://www.w3.org/2000/svg">
  <sodipodi:namedview
     id="namedview1"
     pagecolor="#ffffff"
     bordercolor="#000000"
     borderopacity="0.25"
     inkscape:showpageshadow="2"
     inkscape:pageopacity="0.0"
     inkscape:pagecheckerboard="0"
     inkscape:deskcolor="#d1d1d1"
     inkscape:document-units="mm"
     inkscape:zoom="2.0938813"
     inkscape:cx="136.11087"
     inkscape:cy="156.4081"
     inkscape:window-width="1920"
     inkscape:window-height="1009"
     inkscape:window-x="-8"
     inkscape:window-y="-8"
     inkscape:window-maximized="1"
     inkscape:current-layer="layer1" />
  <defs
     id="defs1">
    <marker
       style="overflow:visible"
       id="marker22"
       refX="0"
       refY="0"
       orient="auto-start-reverse"
       inkscape:stockid="Wide, rounded arrow"
       markerWidth="1"
       markerHeight="1"
       viewBox="0 0 1 1"
       inkscape:isstock="true"
       inkscape:collect="always"
       preserveAspectRatio="xMidYMid">
      <path
         style="fill:none;stroke:context-stroke;stroke-width:1;stroke-linecap:round"
         d="M 3,-3 0,0 3,3"
         transform="rotate(180,0.125,0)"
         sodipodi:nodetypes="ccc"
         id="path22" />
    </marker>
    <marker
       style="overflow:visible"
       id="ArrowWideRounded"
       refX="0"
       refY="0"
       orient="auto-start-reverse"
       inkscape:stockid="Wide, rounded arrow"
       markerWidth="1"
       markerHeight="1"
       viewBox="0 0 1 1"
       inkscape:isstock="true"
       inkscape:collect="always"
       preserveAspectRatio="xMidYMid">
      <path
         style="fill:none;stroke:context-stroke;stroke-width:1;stroke-linecap:round"
         d="M 3,-3 0,0 3,3"
         transform="rotate(180,0.125,0)"
         sodipodi:nodetypes="ccc"
         id="path2" />
    </marker>
    <rect
       x="565.31226"
       y="205.99789"
       width="35.796356"
       height="20.262089"
       id="rect20" />
    <rect
       x="549.1026"
       y="159.3951"
       width="108.06447"
       height="66.189491"
       id="rect15" />
    <inkscape:path-effect
       effect="fillet_chamfer"
       id="path-effect1"
       is_visible="true"
       lpeversion="1"
       nodesatellites_param="F,0,0,1,0,10.723224,0,1 @ F,0,0,1,0,6.4487204,0,1 @ F,0,0,1,0,9.2593697,0,1 @ F,0,0,1,0,4.447881,0,1 @ F,0,0,1,0,10.244455,0,1 @ F,0,0,1,0,0,0,1"
       radius="0"
       unit="px"
       method="auto"
       mode="F"
       chamfer_steps="1"
       flexible="false"
       use_knot_distance="true"
       apply_no_radius="true"
       apply_with_radius="true"
       only_selected="false"
       hide_knots="false" />
    <rect
       x="565.31226"
       y="205.99789"
       width="35.796356"
       height="20.262089"
       id="rect20-6" />
  </defs>
  <g
     inkscape:label="Layer 1"
     inkscape:groupmode="layer"
     id="layer1"
     transform="translate(-56.458041,-39.13259)">
    <path
       style="opacity:0.97093;fill:none;fill-opacity:1;stroke:#000000;stroke-width:0.3;stroke-miterlimit:4.1;stroke-dasharray:none;stroke-opacity:1;paint-order:stroke fill markers"
       d="M 132.55189,102.28861 132.29917,78.216987 126.04433,67.034105 115.87234,60.084292 101.84635,58.252068"
       id="path19" />
    <path
       d="m 67.515939,74.521479 c 9.28174,-7.830749 14.274,-15.7868 16.8128,-21.0159 1.55339,-3.19953 4.06698,-8.47625 7.11106,-10.2638 3.20248,-1.88057 8.30119,-3.66007 16.101401,-3.60808 5.10879,0.03405 13.463,1.33326 17.9561,3.72501 12.4232,6.61307 18.2613,21.5294 20.4715,28.9111 0.70437,2.3525 1.24232,6.30547 0.98084,8.74513 -0.59425,5.5446 -3.08021,14.964 -12.7526,20.433101 -4.90373,2.77277 -14.1051,4.32482 -19.625,5.5655 -21.171101,4.75847 -41.531701,10.184 -51.139101,0.13987 -4.96266,-5.18823 -6.40176,-10.980501 -6.47394,-15.804301 -0.08803,-5.88339 6.03376,-13.0116 10.5571,-16.8278 z"
       style="opacity:0.97093;fill:none;stroke:#ff0000;stroke-width:1;stroke-miterlimit:4.1;stroke-dasharray:none;stroke-opacity:1;paint-order:stroke fill markers"
       id="path1" />
    <circle
       style="opacity:0.97093;fill:#000000;fill-opacity:1;stroke:#000000;stroke-width:0.311229;stroke-miterlimit:4.1;stroke-dasharray:none;stroke-opacity:1;paint-order:stroke fill markers"
       id="path4-9"
       cx="115.91473"
       cy="60.076424"
       r="0.46347365" />
    <circle
       style="opacity:0.97093;fill:#000000;fill-opacity:1;stroke:#000000;stroke-width:0.311229;stroke-miterlimit:4.1;stroke-dasharray:none;stroke-opacity:1;paint-order:stroke fill markers"
       id="path4-9-8"
       cx="125.92723"
       cy="67.009377"
       r="0.46347365" />
    <circle
       style="opacity:0.97093;fill:#000000;fill-opacity:1;stroke:#000000;stroke-width:0.311229;stroke-miterlimit:4.1;stroke-dasharray:none;stroke-opacity:1;paint-order:stroke fill markers"
       id="path4-9-6"
       cx="101.7709"
       cy="58.402138"
       r="0.46347365" />
    <circle
       style="opacity:0.97093;fill:#000000;fill-opacity:1;stroke:#000000;stroke-width:0.311229;stroke-miterlimit:4.1;stroke-dasharray:none;stroke-opacity:1;paint-order:stroke fill markers"
       id="path4-9-4"
       cx="74.519623"
       cy="91.585724"
       r="0.46347365" />
    <circle
       style="opacity:0.97093;fill:#000000;fill-opacity:1;stroke:#000000;stroke-width:0.311229;stroke-miterlimit:4.1;stroke-dasharray:none;stroke-opacity:1;paint-order:stroke fill markers"
       id="path4-9-9"
       cx="89.346634"
       cy="79.244194"
       r="0.46347365" />
    <path
       d="m 81.159839,58.247379 c -0.101,0.1579 -0.0969,0.361101 0.0103,0.5149 0.1073,0.1537 0.2966,0.2277 0.4796,0.1875 0.1831,-0.0403 0.3239,-0.1868 0.3568,-0.3714 0.0329,-0.1845 -0.0487,-0.3707 -0.2066,-0.4717 -0.2156,-0.1379 -0.5022,-0.0749 -0.6401,0.1407 z m 12.3876,-16.5795 c -0.1708,0.0771 -0.2784,0.2495 -0.2725,0.4368 0.0058,0.1874 0.124,0.3527 0.2993,0.419 0.1753,0.0663 0.3732,0.0204 0.5016,-0.1162 0.1283,-0.1366 0.1617,-0.337 0.0846,-0.5079 -0.1053,-0.2332 -0.3797,-0.337 -0.613,-0.2317 z m 20.844801,-1.9228 c -0.1849,-0.0311 -0.3868,0.0634 -0.4795,0.2263 -0.0928,0.1629 -0.0782,0.3656 0.0368,0.5137 0.115,0.148 0.2868,0.2106 0.4695,0.1687 0.1827,-0.042 0.3221,-0.1899 0.3532,-0.3748 0.0425,-0.2524 -0.1276,-0.4914 -0.38,-0.5339 z m 18.8252,8.8086 c -0.131,-0.1334 -0.342,-0.1796 -0.514,-0.103 -0.171,0.0765 -0.279,0.2486 -0.273,0.436 0.005,0.1874 0.104,0.3464 0.277,0.4194 0.173,0.0729 0.372,0.0347 0.506,-0.0969 0.182,-0.1798 0.184,-0.4732 0.004,-0.6555 z m 11.148,17.7598 c -0.067,-0.1751 -0.233,-0.292699 -0.42,-0.2979 -0.187,-0.0052 -0.359,0.102901 -0.436,0.274001 -0.076,0.171199 -0.042,0.371499 0.086,0.5077 0.129,0.136099 0.327,0.181299 0.502,0.1144 0.24,-0.0913 0.359,-0.3591 0.268,-0.598201 z m 1.839,20.643901 c 0.052,-0.179901 -0.009,-0.373801 -0.155,-0.4913 -0.146,-0.117501 -0.348,-0.1354 -0.513,-0.0454 -0.164,0.0899 -0.258,0.2701 -0.238,0.4564 0.02,0.1864 0.146,0.331 0.323,0.3924 0.242,0.0837 0.511,-0.0665 0.583,-0.3121 z m -13.439,15.7149 c 0.17,-0.077 0.278,-0.249 0.272,-0.437 -0.006,-0.187 -0.125,-0.352 -0.3,-0.418 -0.176,-0.067 -0.373,-0.02 -0.502,0.116 -0.128,0.137 -0.154,0.333 -0.084,0.507 0.095,0.238 0.38,0.338 0.614,0.232 z m -20.3085,5.295 c 0.1828,-0.041 0.3227,-0.189 0.3544,-0.373 0.0318,-0.185 -0.0509,-0.371 -0.2095,-0.471 -0.1585,-0.1 -0.3617,-0.094 -0.5148,0.014 -0.153,0.108 -0.2259,0.298 -0.1845,0.481 0.0565,0.249 0.3047,0.406 0.5544,0.349 z m -20.513401,4.245 c 0.1848,-0.031 0.3325,-0.171 0.3742,-0.354 0.0417,-0.182 -0.0308,-0.372 -0.1837,-0.481 -0.1529,-0.108 -0.3561,-0.114 -0.5148,-0.014 -0.1587,0.1 -0.2371,0.278 -0.2112,0.464 0.0353,0.253 0.2832,0.428 0.5355,0.385 z m -20.9836,-0.103 c 0.1781,0.058 0.3987,-0.007 0.5119,-0.156 0.1131,-0.15 0.1251,-0.352 0.0303,-0.514 -0.0948,-0.162 -0.2474,-0.247 -0.4342,-0.232 -0.1869,0.014 -0.3467,0.14 -0.4048,0.318 -0.0794,0.243 0.0535,0.505 0.2968,0.584 z m -13.7354,-15.1316 c 0.0435,0.1823 0.2019,0.3345 0.3882,0.3555 0.1862,0.0211 0.3668,-0.0721 0.4575,-0.2361 0.0908,-0.1641 0.0902,-0.3474 -0.0198,-0.4991 -0.11,-0.1518 -0.3006,-0.2223 -0.4829,-0.1788 -0.249,0.0595 -0.4025,0.3096 -0.343,0.5585 z m 6.3009,-19.2675 c -0.1233,0.1411 -0.1495,0.3426 -0.0663,0.5106 0.0832,0.1679 0.2594,0.2692 0.4464,0.2566 0.187,-0.0126 0.3223,-0.1184 0.3931,-0.2919 0.0707,-0.1736 0.03,-0.3727 -0.1033,-0.5045 -0.182,-0.1799 -0.5015,-0.1635 -0.6699,0.0292 z"
       style="opacity:0.97093;fill:#000000;fill-opacity:1;stroke:#000000;stroke-width:0.311229;stroke-miterlimit:4.1;stroke-dasharray:none;stroke-opacity:1;paint-order:stroke fill markers"
       id="circle3339"
       sodipodi:nodetypes="scccssscsccscccccccccccccscccccscsccsccccscccccccccsccccscccccccccscsccs" />
    <path
       style="opacity:0.97093;fill:none;fill-opacity:1;stroke:#000000;stroke-width:0.3;stroke-miterlimit:4.1;stroke-dasharray:none;stroke-opacity:1;paint-order:stroke fill markers"
       d="m 63.767244,77.98277 -6.191652,18.827676 13.520547,14.847324 20.723077,0.0632 20.407174,-4.23307 20.28082,-5.30713 13.26782,-15.352763 -1.8954,-20.53354 -11.05652,-17.56407 -18.57496,-8.529318 -20.596711,1.769044 -12.193762,16.61637 z"
       id="path4" />
    <path
       style="opacity:0.97093;fill:none;fill-opacity:1;stroke:#000000;stroke-width:0.3;stroke-miterlimit:4.1;stroke-dasharray:none;stroke-opacity:1;paint-order:stroke fill markers"
       d="M 81.518211,58.450348 89.381027,79.090241 63.737526,78.107388"
       id="path5" />
    <path
       style="opacity:0.97093;fill:none;fill-opacity:1;stroke:#000000;stroke-width:0.3;stroke-miterlimit:4.1;stroke-dasharray:none;stroke-opacity:1;paint-order:stroke fill markers"
       d="m 63.916226,78.196736 10.45397,13.313177 -16.797834,5.271663"
       id="path6" />
    <path
       style="opacity:0.97093;fill:none;fill-opacity:1;stroke:#000000;stroke-width:0.3;stroke-miterlimit:4.1;stroke-dasharray:none;stroke-opacity:1;paint-order:stroke fill markers"
       d="M 71.064241,111.34566 74.370196,91.599264 89.470378,79.358291"
       id="path7" />
    <path
       style="opacity:0.97093;fill:none;fill-opacity:1;stroke:#000000;stroke-width:0.3;stroke-miterlimit:4.1;stroke-dasharray:none;stroke-opacity:1;paint-order:stroke fill markers"
       d="M 74.370196,91.509914 91.793482,111.70305 89.381027,79.000888 112.25467,107.1462"
       id="path8" />
    <path
       style="opacity:0.97093;fill:none;fill-opacity:1;stroke:#000000;stroke-width:0.3;stroke-miterlimit:4.1;stroke-dasharray:none;stroke-opacity:1;paint-order:stroke fill markers"
       d="M 81.518211,58.629048 101.8007,58.271646 93.580486,41.920563"
       id="path9" />
    <path
       style="opacity:0.97093;fill:none;fill-opacity:1;stroke:#000000;stroke-width:0.3;stroke-miterlimit:4.1;stroke-dasharray:none;stroke-opacity:1;paint-order:stroke fill markers"
       d="m 89.470377,79.26894 27.519853,8.756316 15.45759,-9.73917"
       id="path11" />
    <path
       style="opacity:0.97093;fill:none;fill-opacity:1;stroke:#000000;stroke-width:0.3;stroke-miterlimit:4.1;stroke-dasharray:none;stroke-opacity:1;paint-order:stroke fill markers"
       d="M 101.8007,58.539698 89.381027,79.26894"
       id="path12" />
    <path
       style="opacity:0.97093;fill:none;fill-opacity:1;stroke:#000000;stroke-width:0.3;stroke-miterlimit:4.1;stroke-dasharray:none;stroke-opacity:1;paint-order:stroke fill markers"
       d="m 101.9794,58.360996 8.04152,13.938629 -20.818593,6.790615"
       id="path13" />
    <path
       style="opacity:0.97093;fill:none;fill-opacity:1;stroke:#000000;stroke-width:0.3;stroke-miterlimit:4.1;stroke-dasharray:none;stroke-opacity:1;paint-order:stroke fill markers"
       d="m 117.07958,87.846557 -7.14801,-15.725633 22.33754,6.254513"
       id="path14" />
    <path
       style="opacity:0.97093;fill:none;fill-opacity:1;stroke:#000000;stroke-width:0.3;stroke-miterlimit:4.1;stroke-dasharray:none;stroke-opacity:1;paint-order:stroke fill markers"
       d="m 115.82868,60.05865 -5.80776,12.330326 16.08303,-5.182311"
       id="path15" />
    <circle
       style="opacity:0.97093;fill:#000000;fill-opacity:1;stroke:#000000;stroke-width:0.311229;stroke-miterlimit:4.1;stroke-dasharray:none;stroke-opacity:1;paint-order:stroke fill markers"
       id="path4-9-8-7"
       cx="132.26576"
       cy="78.232834"
       r="0.46347365" />
    <circle
       style="opacity:0.97093;fill:#d8d8da;fill-opacity:1;stroke:#d8d8da;stroke-width:0.317184;stroke-miterlimit:4.1;stroke-dasharray:none;stroke-opacity:1;paint-order:stroke fill markers"
       id="path4-9-8-1-5"
       cx="132.57312"
       cy="102.25954"
       r="0.47234222" />
    <circle
       style="opacity:0.97093;fill:#000000;fill-opacity:1;stroke:#000000;stroke-width:0.311229;stroke-miterlimit:4.1;stroke-dasharray:none;stroke-opacity:1;paint-order:stroke fill markers"
       id="path4-9-8-8"
       cx="110.15556"
       cy="72.387711"
       r="0.46347365" />
    <text
       xml:space="preserve"
       transform="scale(0.26458333)"
       id="text15"
       style="font-size:12px;line-height:1.25;font-family:'Latin Modern Sans';-inkscape-font-specification:'Latin Modern Sans';text-align:center;white-space:pre;shape-inside:url(#rect15);display:inline;opacity:0.97093;fill:none;fill-opacity:1;stroke:#000000;stroke-width:1.13386;stroke-miterlimit:4.1;stroke-dasharray:none;stroke-opacity:1;paint-order:stroke fill markers" />
    <text
       xml:space="preserve"
       style="font-style:normal;font-variant:normal;font-weight:bold;font-stretch:normal;font-size:3.88056px;line-height:1.25;font-family:'Latin Modern Sans';-inkscape-font-specification:'Latin Modern Sans Bold';text-align:center;text-anchor:middle;opacity:0.97093;fill:#ff0000;fill-opacity:1;stroke:none;stroke-width:0.3;stroke-miterlimit:4.1;stroke-dasharray:none;stroke-opacity:1;paint-order:stroke fill markers"
       x="145.76344"
       y="97.45929"
       id="text16"><tspan
         sodipodi:role="line"
         id="tspan16"
         style="font-style:normal;font-variant:normal;font-weight:bold;font-stretch:normal;font-size:3.88056px;font-family:'Latin Modern Sans';-inkscape-font-specification:'Latin Modern Sans Bold';fill:#ff0000;fill-opacity:1;stroke:none;stroke-width:0.3;stroke-opacity:1"
         x="145.76344"
         y="97.45929">Ω</tspan></text>
    <text
       xml:space="preserve"
       style="font-style:normal;font-variant:normal;font-weight:bold;font-stretch:normal;font-size:3.88056px;line-height:1.25;font-family:'Latin Modern Sans';-inkscape-font-specification:'Latin Modern Sans Bold';text-align:center;text-anchor:middle;opacity:0.97093;fill:#d8d8da;fill-opacity:1;stroke:none;stroke-width:0.3;stroke-miterlimit:4.1;stroke-dasharray:none;stroke-opacity:1;paint-order:stroke fill markers"
       x="128.47629"
       y="109.81894"
       id="text16-2"><tspan
         sodipodi:role="line"
         id="tspan16-5"
         style="font-style:normal;font-variant:normal;font-weight:bold;font-stretch:normal;font-size:3.88056px;font-family:'Latin Modern Sans';-inkscape-font-specification:'Latin Modern Sans Bold';fill:#d8d8da;fill-opacity:1;stroke:none;stroke-width:0.3;stroke-opacity:1"
         x="128.47629"
         y="109.81894">K<tspan
   style="font-size:65%;baseline-shift:sub;fill:#d8d8da;fill-opacity:1"
   id="tspan17">i</tspan></tspan></text>
    <circle
       style="opacity:0.97093;fill:#d8d8da;fill-opacity:1;stroke:#d8d8da;stroke-width:0.317184;stroke-miterlimit:4.1;stroke-dasharray:none;stroke-opacity:1;paint-order:stroke fill markers"
       id="path4-9-8-1-5-5"
       cx="112.35568"
       cy="107.50721"
       r="0.47234222" />
    <path
       style="opacity:0.97093;fill:none;fill-opacity:1;stroke:#d8d8da;stroke-width:0.4;stroke-miterlimit:4.1;stroke-dasharray:none;stroke-opacity:1;paint-order:stroke fill markers"
       d="m 112.31846,107.52466 20.26502,-5.29923 -15.47913,-14.310295 z"
       id="path17"
       sodipodi:nodetypes="cccc" />
    <circle
       style="opacity:0.97093;fill:#d8d8da;fill-opacity:1;stroke:#d8d8da;stroke-width:0.311229;stroke-miterlimit:4.1;stroke-dasharray:none;stroke-opacity:1;paint-order:stroke fill markers"
       id="path4-9-8-1"
       cx="117.08974"
       cy="87.975044"
       r="0.46347365" />
    <path
       style="opacity:0.97093;fill:none;fill-opacity:1;stroke:#000000;stroke-width:0.3;stroke-miterlimit:4.1;stroke-dasharray:none;stroke-opacity:1;paint-order:stroke fill markers"
       d="m 101.78317,58.315248 12.50966,-18.195874 1.76905,19.838558 17.05863,-11.182881 -7.01299,18.259054 17.62725,-0.505442 -11.49878,11.561964 13.39418,8.782034"
       id="path18" />
    <text
       xml:space="preserve"
       transform="matrix(0.26458333,0,0,0.26458333,-53.610108,13.313177)"
       id="text20"
       style="font-style:normal;font-variant:normal;font-weight:bold;font-stretch:normal;font-size:14.6667px;line-height:1.25;font-family:'Latin Modern Sans';-inkscape-font-specification:'Latin Modern Sans Bold';text-align:center;white-space:pre;shape-inside:url(#rect20);display:inline;opacity:0.97093;fill:#000006;fill-opacity:1;stroke:none;stroke-width:1.13386;stroke-miterlimit:4.1;stroke-dasharray:none;stroke-opacity:1;paint-order:stroke fill markers"><tspan
         x="575.16148"
         y="219.65274"
         id="tspan3">T<tspan
   style="font-size:65%;baseline-shift:sub"
   id="tspan1">h</tspan></tspan></text>
    <path
       style="opacity:0.97093;fill:#000006;fill-opacity:1;stroke:#000000;stroke-width:0.2;stroke-miterlimit:4.1;stroke-dasharray:none;stroke-opacity:1;marker-start:url(#ArrowWideRounded);marker-end:url(#marker22);paint-order:stroke fill markers"
       d="M 79.497786,56.304481 61.851126,75.738145"
       id="path21" />
    <text
       xml:space="preserve"
       transform="matrix(0.26458333,0,0,0.26458333,-86.341563,7.4040509)"
       id="text20-5"
       style="font-style:normal;font-variant:normal;font-weight:normal;font-stretch:normal;font-size:14.6667px;line-height:1.25;font-family:'Latin Modern Sans';-inkscape-font-specification:'Latin Modern Sans';text-align:center;white-space:pre;shape-inside:url(#rect20-6);display:inline;opacity:0.97093;fill:#000006;fill-opacity:1;stroke:none;stroke-width:1.13386;stroke-miterlimit:4.1;stroke-dasharray:none;stroke-opacity:1;paint-order:stroke fill markers"><tspan
         x="579.41959"
         y="219.65274"
         id="tspan4">h</tspan></text>
  </g>
</svg>
